# Blender v3.0.1 OBJ File: 'plataforma.blend'
# www.blender.org
mtllib plataforma_cruz.mtl
o Cube.001
v 0.800000 0.010731 -0.800000
v -0.800000 0.010731 -0.800000
v -0.800000 0.010731 0.800000
v 0.800000 0.010731 0.800000
v 0.800000 -0.010731 0.800000
v -0.800000 -0.010731 0.800000
v -0.800000 -0.010731 -0.800000
v 0.800000 -0.010731 -0.800000
vt 0.123671 0.120164
vt 0.877963 0.875206
vt 0.122421 0.873956
vt 0.262822 0.766723
vt 0.263360 0.735874
vt 0.263360 0.766726
vt 0.263379 0.766723
vt 0.263918 0.735874
vt 0.263918 0.766726
vt 0.262245 0.775216
vt 0.222900 0.735871
vt 0.262245 0.735871
vt 0.262264 0.766723
vt 0.262803 0.735874
vt 0.262803 0.766726
vt 0.263937 0.766723
vt 0.264475 0.735874
vt 0.264475 0.766726
vt 0.879213 0.121414
vt 0.262822 0.735871
vt 0.263379 0.735871
vt 0.222900 0.775216
vt 0.262264 0.735871
vt 0.263937 0.735871
vn 0.0000 1.0000 0.0000
vn 0.0000 0.0000 1.0000
vn -1.0000 0.0000 0.0000
vn 0.0000 -1.0000 -0.0000
vn 1.0000 0.0000 0.0000
vn 0.0000 0.0000 -1.0000
usemtl Mat_Circulo
s 1
f 2/1/1 4/2/1 1/3/1
f 4/4/2 6/5/2 5/6/2
f 3/7/3 7/8/3 6/9/3
f 8/10/4 6/11/4 7/12/4
f 1/13/5 5/14/5 8/15/5
f 2/16/6 8/17/6 7/18/6
f 2/1/1 3/19/1 4/2/1
f 4/4/2 3/20/2 6/5/2
f 3/7/3 2/21/3 7/8/3
f 8/10/4 5/22/4 6/11/4
f 1/13/5 4/23/5 5/14/5
f 2/16/6 1/24/6 8/17/6
